<svg xmlns="http://www.w3.org/2000/svg" xmlns:xlink="http://www.w3.org/1999/xlink" width="1080" zoomAndPan="magnify" viewBox="0 0 810 809.999993" height="1080" preserveAspectRatio="xMidYMid meet" version="1.0"><path fill="#e6e6e6" d="M 405 622.6875 L 248.0625 717.1875 C 242.4375 720.5625 236.8125 722.109375 231.1875 721.828125 C 225.5625 721.546875 220.5 719.71875 216 716.34375 C 211.5 712.96875 208.125 708.75 205.875 703.6875 C 203.625 698.625 203.0625 693 204.1875 686.8125 L 246.375 507.09375 L 107.15625 386.4375 C 102.09375 381.9375 99 377.015625 97.875 371.671875 C 96.75 366.328125 97.03125 360.84375 98.71875 355.21875 C 99.84375 350.15625 102.65625 345.796875 107.15625 342.140625 C 111.65625 338.484375 117 336.375 123.1875 335.8125 L 307.125 319.78125 L 378 151.03125 C 380.8125 144.84375 384.75 140.34375 389.8125 137.53125 C 394.875 134.71875 399.9375 133.3125 405 133.3125 C 410.0625 133.3125 415.125 134.71875 420.1875 137.53125 C 425.25 140.34375 429.1875 144.84375 432 151.03125 L 502.875 319.78125 L 686.8125 335.8125 C 693 336.375 698.34375 338.484375 702.84375 342.140625 C 707.34375 345.796875 710.15625 350.15625 711.28125 355.21875 C 712.96875 360.84375 713.25 366.328125 712.125 371.671875 C 711 377.015625 707.90625 381.9375 702.84375 386.4375 L 563.625 507.09375 L 605.8125 686.8125 C 606.9375 693 606.375 698.625 604.125 703.6875 C 601.875 708.75 598.5 712.96875 594 716.34375 C 589.5 719.71875 584.4375 721.546875 578.8125 721.828125 C 573.1875 722.109375 567.5625 720.5625 561.9375 717.1875 Z M 405 622.6875 " fill-opacity="1" fill-rule="nonzero"/></svg>